<?xml version="1.0" encoding="UTF-8" standalone="no"?>
<svg width="165px" height="36px" viewBox="0 0 165 36" version="1.1" xmlns="http://www.w3.org/2000/svg" xmlns:xlink="http://www.w3.org/1999/xlink">
    <!-- Generator: Sketch 40.3 (33839) - http://www.bohemiancoding.com/sketch -->
    <title>Page 1</title>
    <desc>Created with Sketch.</desc>
    <defs></defs>
    <g id="Page-1" stroke="none" stroke-width="1" fill="none" fill-rule="evenodd">
        <g>
            <path d="M6.75636479,17.9672143 C6.75636479,18.6573214 6.90852432,19.3098214 7.21220136,19.9240714 C7.51555739,20.5389643 7.92869942,21.0709286 8.45226946,21.5209286 C8.97519747,21.9706071 9.57388424,22.3306071 10.2496138,22.6006071 C10.9240593,22.8702857 11.6495457,23.0052857 12.426394,23.0052857 C13.168573,23.0052857 13.885713,22.8702857 14.5778142,22.6006071 C15.2692733,22.3306071 15.8766274,21.9706071 16.4005185,21.5209286 C16.9231255,21.0709286 17.3369095,20.5389643 17.6405866,19.9240714 C17.9445846,19.3098214 18.0961021,18.6573214 18.0961021,17.9672143 C18.0961021,17.2774286 17.9445846,16.62525 17.6405866,16.0103571 C17.3369095,15.3961071 16.9231255,14.8635 16.4005185,14.4135 C15.8766274,13.9638214 15.2692733,13.6038214 14.5778142,13.3341429 C13.885713,13.0641429 13.168573,12.9291429 12.426394,12.9291429 C11.6495457,12.9291429 10.9240593,13.0718571 10.2496138,13.3563214 C9.57388424,13.64175 8.97519747,14.0165357 8.45226946,14.481 C7.92869942,14.9464286 7.51555739,15.4861071 7.21220136,16.1003571 C6.90852432,16.71525 6.75636479,17.3375357 6.75636479,17.9672143 M3.41527529,0.153964286 C3.85345623,0.124392857 4.27558658,0.191892857 4.68070331,0.356464286 C5.08582004,0.521678571 5.44824222,0.738642857 5.76925389,1.00864286 C6.08962354,1.27864286 6.33423444,1.60103571 6.50340759,1.97582143 C6.6716177,2.35125 6.75636479,2.73342857 6.75636479,3.12267857 L6.75636479,8.29575 C7.93736673,7.75607143 9.16106323,7.40410714 10.4268123,7.23889286 C11.6922403,7.07432143 12.949322,7.07432143 14.1983784,7.23889286 C15.4464718,7.40410714 16.66118,7.73357143 17.8431449,8.22825 C19.0241469,8.72325 20.1213648,9.39085714 21.1338356,10.2301071 C22.3148375,11.3097857 23.2008298,12.4720714 23.7914912,13.7163214 C24.3815107,14.9608929 24.6774835,16.3780714 24.6774835,17.9672143 C24.6774835,19.467 24.3484465,20.8764643 23.6903726,22.1956071 C23.0322986,23.5157143 22.1463064,24.6699643 21.0327169,25.6593214 C19.9188064,26.649 18.6190302,27.4291071 17.1343512,27.9983571 C15.6490302,28.56825 14.0792831,28.8530357 12.426394,28.8530357 C10.8062481,28.8530357 9.25351459,28.5608571 7.7688356,27.9761786 C6.28319358,27.3911786 4.97571304,26.604 3.84575195,25.6143214 C2.7141858,24.6246429 1.81182198,23.4707143 1.13705545,22.1506071 C0.461646887,20.8314643 0.12458463,19.4367857 0.12458463,17.9672143 L0.12458463,2.898 C0.12458463,2.538 0.225703307,2.18571429 0.428261673,1.84082143 C0.630820039,1.49657143 0.883777237,1.19635714 1.18745428,0.941142857 C1.49145233,0.686571429 1.83718191,0.484071429 2.22560603,0.333964286 C2.61306712,0.184178571 3.01015856,0.124392857 3.41527529,0.153964286" id="Fill-1" fill="#1E788C"></path>
            <path d="M38.7001722,12.9292071 C37.9233239,12.9292071 37.1978375,13.0568143 36.523392,13.3113857 C35.8476625,13.5666 35.2489757,13.9188857 34.7260477,14.3688857 C34.2024776,14.8185643 33.7896566,15.3511714 33.4859796,15.9654214 C33.1823025,16.5803143 33.030143,17.2476 33.030143,17.9672786 C33.030143,18.6573857 33.1823025,19.3098857 33.4859796,19.9241357 C33.7896566,20.5390286 34.2024776,21.0787071 34.7260477,21.5434929 C35.2489757,22.0086 35.8476625,22.3756714 36.523392,22.6456714 C37.1978375,22.91535 37.9233239,23.05035 38.7001722,23.05035 C39.4760574,23.05035 40.2102111,22.91535 40.9023123,22.6456714 C41.5937714,22.3756714 42.1934212,22.0086 42.6993356,21.5434929 C43.205571,21.0787071 43.6106877,20.5390286 43.9143648,19.9241357 C44.2180418,19.3098857 44.3702014,18.6573857 44.3702014,17.9672786 C44.3021469,16.58835 43.7451916,15.4186714 42.6993356,14.4585643 C41.6528375,13.4991 40.3203181,12.9893143 38.7001722,12.9292071 M38.7001722,7.03645714 C40.3530613,7.03645714 41.9228084,7.32188571 43.4081294,7.89113571 C44.8928084,8.46135 46.1925846,9.24049286 47.3064951,10.2301714 C48.4200846,11.21985 49.3060768,12.3744214 49.9641508,13.6938857 C50.6222247,15.0136714 50.9512617,16.4379214 50.9512617,17.9672786 C50.9512617,19.4670643 50.63025,20.8684929 49.9895107,22.1731714 C49.3478084,23.4775286 48.4785088,24.6247071 47.3822539,25.6143857 C46.285036,26.6040643 44.993927,27.3841714 43.5092481,27.9534214 C42.023927,28.5236357 40.4211158,28.8081 38.7001722,28.8081 C37.0119718,28.8081 35.4261741,28.5384214 33.9414951,27.9984214 C32.4558531,27.4587429 31.1570399,26.7017786 30.0431294,25.7265643 C28.9295399,24.7526357 28.051573,23.6054571 27.4108337,22.28535 C26.7694523,20.9662071 26.4490827,19.52685 26.4490827,17.9672786 C26.4490827,16.4681357 26.760785,15.0657429 27.3854737,13.7613857 C28.0095204,12.4567071 28.8701527,11.3172429 29.9673706,10.3426714 C31.0636255,9.36842143 32.3634018,8.58831429 33.8654154,8.00363571 C35.366787,7.41863571 36.9789076,7.09656429 38.7001722,7.03645714" id="Fill-3" fill="#1E788C"></path>
            <path d="M65.6322169,12.9292071 C64.8553687,12.9292071 64.1298823,13.0568143 63.4554368,13.3113857 C62.7797072,13.5666 62.1810204,13.9188857 61.6580924,14.3688857 C61.1345224,14.8185643 60.7217014,15.3511714 60.4180243,15.9654214 C60.1143473,16.5803143 59.9621877,17.2476 59.9621877,17.9672786 C59.9621877,18.6573857 60.1143473,19.3098857 60.4180243,19.9241357 C60.7217014,20.5390286 61.1345224,21.0787071 61.6580924,21.5434929 C62.1810204,22.0086 62.7797072,22.3756714 63.4554368,22.6456714 C64.1298823,22.91535 64.8553687,23.05035 65.6322169,23.05035 C66.4081021,23.05035 67.1422558,22.91535 67.834357,22.6456714 C68.5258161,22.3756714 69.125466,22.0086 69.6313804,21.5434929 C70.1376158,21.0787071 70.5427325,20.5390286 70.8464095,19.9241357 C71.1500866,19.3098857 71.3022461,18.6573857 71.3022461,17.9672786 C71.2341916,16.58835 70.6772364,15.4186714 69.6313804,14.4585643 C68.5848823,13.4991 67.2523628,12.9893143 65.6322169,12.9292071 M65.6322169,7.03645714 C67.285106,7.03645714 68.8548531,7.32188571 70.3401741,7.89113571 C71.8248531,8.46135 73.1246294,9.24049286 74.2385399,10.2301714 C75.3521294,11.21985 76.2381216,12.3744214 76.8961955,13.6938857 C77.5542695,15.0136714 77.8833064,16.4379214 77.8833064,17.9672786 C77.8833064,19.4670643 77.5622947,20.8684929 76.9215554,22.1731714 C76.2798531,23.4775286 75.4105535,24.6247071 74.3142986,25.6143857 C73.2170807,26.6040643 71.9259718,27.3841714 70.4412928,27.9534214 C68.9559718,28.5236357 67.3531605,28.8081 65.6322169,28.8081 C63.9440165,28.8081 62.3582189,28.5384214 60.8735399,27.9984214 C59.3878979,27.4587429 58.0890846,26.7017786 56.9751741,25.7265643 C55.8615846,24.7526357 54.9836177,23.6054571 54.3428784,22.28535 C53.7014971,20.9662071 53.3811274,19.52685 53.3811274,17.9672786 C53.3811274,16.4681357 53.6928298,15.0657429 54.3175185,13.7613857 C54.9415652,12.4567071 55.8021975,11.3172429 56.8994154,10.3426714 C57.9956702,9.36842143 59.2954465,8.58831429 60.7974601,8.00363571 C62.2988317,7.41863571 63.9109523,7.09656429 65.6322169,7.03645714" id="Fill-4" fill="#1E788C"></path>
            <path d="M100.157921,23.7249964 C100.832688,24.3251036 101.170392,25.0373893 101.170392,25.8615321 C101.170392,26.6869607 100.832688,27.398925 100.157921,27.9983893 C99.4825126,28.5383893 98.6899348,28.8305679 97.7785827,28.8755679 C96.8672305,28.9205679 96.0576391,28.6280679 95.3488453,27.9983893 L87.7042733,21.2509607 L87.7042733,25.8393536 C87.7042733,26.6194607 87.3665691,27.3166393 86.6918025,27.9308893 C86.016073,28.5457821 85.2238161,28.8530679 84.312464,28.8530679 C83.4341761,28.8530679 82.6419193,28.5608893 81.9331255,27.9762107 C81.2246527,27.3912107 80.8699348,26.678925 80.8699348,25.8393536 L80.8699348,3.12271071 C80.8699348,2.34324643 81.2069971,1.64638929 81.8824056,1.03085357 C82.5571722,0.416603571 83.3670846,0.108996429 84.312464,0.108996429 C85.2568804,0.108996429 86.0590885,0.401175 86.7171625,0.986175 C87.3752364,1.57085357 87.7042733,2.28378214 87.7042733,3.12271071 L87.7042733,14.4135321 L95.3488453,7.62110357 C96.0232909,7.02163929 96.8168317,6.72913929 97.7281839,6.743925 C98.639215,6.759675 99.4491274,7.05185357 100.157921,7.62110357 C100.832688,8.22153214 101.170392,8.933175 101.170392,9.75796071 C101.170392,10.5827464 100.832688,11.2950321 100.157921,11.8944964 L93.4757422,17.8322464 L100.157921,23.7249964 Z" id="Fill-5" fill="#1E788C"></path>
            <path d="M106.789445,7.21629643 C107.666769,7.21629643 108.400923,7.501725 108.991585,8.070975 C109.581604,8.64118929 109.910962,9.33033214 109.979017,10.1403321 L109.979017,26.064225 C109.979017,26.8739036 109.691711,27.5485821 109.118384,28.0885821 C108.544094,28.6279393 107.768209,28.9275107 106.789445,28.9879393 C105.911799,28.9879393 105.16962,28.7481536 104.562266,28.2682607 C103.95459,27.7890107 103.582859,27.1140107 103.448355,26.2439036 L103.448355,9.96033214 C103.515768,9.18054643 103.869843,8.53608214 104.511225,8.025975 C105.151964,7.51651071 105.911799,7.24651071 106.789445,7.21629643 M106.789445,0.333867857 C107.666769,0.333867857 108.417295,0.626367857 109.042625,1.21104643 C109.666351,1.79604643 109.979017,2.47843929 109.979017,3.25790357 C109.979017,4.03801071 109.666351,4.71943929 109.042625,5.30443929 C108.417295,5.88911786 107.666769,6.18161786 106.789445,6.18161786 C105.810359,6.15204643 105.008793,5.87433214 104.385067,5.34943929 C103.759736,4.82518929 103.448355,4.08301071 103.448355,3.12290357 C103.481419,2.34343929 103.827791,1.683225 104.486186,1.14354643 C105.14426,0.603867857 105.911799,0.333867857 106.789445,0.333867857" id="Fill-6" fill="#ED992F"></path>
            <path d="M134.734377,7.08132857 C135.611381,7.08132857 136.371216,7.36675714 137.012597,7.93600714 C137.653337,8.56568571 137.974348,9.24068571 137.974348,9.96036429 C137.974348,10.7700429 137.653337,11.46015 137.012597,12.0297214 C136.843103,12.1798286 136.674893,12.3296143 136.506362,12.4794 C136.336868,12.6298286 136.168658,12.7796143 135.999805,12.9290786 C134.109689,14.6088643 132.22856,16.2802929 130.355136,17.94465 C128.482033,19.6093286 126.583891,21.2814 124.660068,22.9602214 L134.734377,22.9602214 C135.577675,22.9904357 136.336868,23.29065 137.012597,23.8599 C137.653337,24.4895786 137.974348,25.1947929 137.974348,25.9739357 C137.974348,26.6939357 137.653337,27.3686143 137.012597,27.9982929 C136.303804,28.5685071 135.54429,28.8529714 134.734377,28.8529714 L134.582539,28.8529714 L118.079008,28.8529714 L116.813259,28.8529714 L116.66142,28.8529714 C115.783453,28.8529714 115.024261,28.5685071 114.383521,27.9982929 C113.707792,27.3988286 113.387422,26.72415 113.421449,25.9739357 C113.353716,25.1645786 113.657393,24.4895786 114.332481,23.9499 L126.685331,12.9290786 L116.813259,12.9290786 L116.66142,12.9290786 C115.750068,12.8692929 114.990875,12.5690786 114.383521,12.0297214 C113.674728,11.46015 113.353716,10.7700429 113.421449,9.96036429 C113.387422,9.21111429 113.707792,8.53611429 114.383521,7.93600714 C114.990875,7.36675714 115.750068,7.08132857 116.66142,7.08132857 L134.734377,7.08132857 Z" id="Fill-7" fill="#ED992F"></path>
            <path d="M143.643703,7.03645714 C144.48668,7.03645714 145.254861,7.29167143 145.946962,7.80113571 C146.638421,8.31156429 146.984793,8.97081429 146.984793,9.78017143 L146.984793,17.9222786 C146.984793,18.6127071 147.127964,19.2571714 147.414948,19.8566357 C147.701612,20.4567429 148.098703,20.9813143 148.604618,21.4309929 C149.110853,21.8809929 149.70954,22.2406714 150.401962,22.5106714 C151.093421,22.78035 151.84491,22.91535 152.654501,22.91535 C153.363295,22.91535 154.063421,22.7957786 154.755522,22.55535 C155.447303,22.3158857 156.054336,21.9861 156.578227,21.5656714 C157.101155,21.1462071 157.522643,20.6438143 157.843655,20.0591357 C158.164024,19.4741357 158.32453,18.8373857 158.32453,18.1469571 L158.32453,9.91517143 C158.32453,9.13570714 158.636232,8.46135 159.261242,7.89113571 C159.88561,7.32188571 160.670162,7.03645714 161.615221,7.03645714 C162.492546,7.03645714 163.268752,7.29906429 163.943839,7.82363571 C164.618927,8.34852857 164.956631,9.00070714 164.956631,9.78017143 L164.956631,32.9018143 C164.956631,33.6812786 164.618927,34.34085 163.943839,34.88085 C163.268752,35.42085 162.492546,35.6905286 161.615221,35.6905286 C160.771281,35.6905286 160.011768,35.42085 159.337322,34.88085 C158.661592,34.34085 158.32453,33.6359571 158.32453,32.7668143 L158.32453,27.5934214 C157.547682,28.01385 156.662011,28.3211357 155.666875,28.5156 C154.671096,28.71135 153.667293,28.8081 152.654501,28.8081 C151.000649,28.8081 149.431223,28.5236357 147.946544,27.9534214 C146.460902,27.3841714 145.153421,26.6040643 144.02346,25.6143857 C142.891894,24.6247071 141.998197,23.4482786 141.340124,22.0831714 C140.68205,20.7187071 140.353013,19.2269571 140.353013,17.6076 L140.353013,9.91517143 C140.353013,9.13570714 140.664715,8.46135 141.289404,7.89113571 C141.91345,7.32188571 142.698324,7.03645714 143.643703,7.03645714" id="Fill-8" fill="#ED992F"></path>
        </g>
    </g>
</svg>